<?xml version="1.0" encoding="utf-8" standalone="yes"?>
<!DOCTYPE svg PUBLIC "-//W3C//DTD SVG 1.1//EN" "http://www.w3.org/Graphics/SVG/1.1/DTD/svg11.dtd">
<svg version="1.1" xmlns="http://www.w3.org/2000/svg" xmlns:xlink="http://www.w3.org/1999/xlink" width="8.888889in" height="2.041667in" class="slides-canvas" viewBox="0 0 640 147">
  <g text-rendering="geometricPrecision" transform="scale(1, 1)">
    <g transform="matrix(1, 0, 0, 1, -79, -360)">
      <path fill="#F8D7CD" fill-opacity="0.9" d="M109.58 395.85L179.03 395.85 179.03 379.67 232.95 433.59 179.03 487.51 179.03 471.34 109.58 471.34z" />
      <path stroke-width="1" stroke="#F8D7CD" stroke-opacity="0.9" fill="none" d="M109.58 395.85L179.03 395.85 179.03 379.67 232.95 433.59 179.03 487.51 179.03 471.34 109.58 471.34z" />
    </g>
    <g transform="matrix(1, 0, 0, 1, -79, -360)">
      <path fill="#ED7D31" d="M78.73 433.59C78.73 416.56 92.54 402.75 109.58 402.75 126.61 402.75 140.42 416.56 140.42 433.59 140.42 450.63 126.61 464.44 109.58 464.44L109.58 464.44C92.54 464.44 78.73 450.63 78.73 433.59z" />
      <path stroke-width="1" stroke="#FFFFFF" fill="none" d="M78.73 433.59C78.73 416.56 92.54 402.75 109.58 402.75 126.61 402.75 140.42 416.56 140.42 433.59 140.42 450.63 126.61 464.44 109.58 464.44L109.58 464.44C92.54 464.44 78.73 450.63 78.73 433.59z" />
    </g>
    <g transform="matrix(1, 0, 0, 1, 9.76712, 52.7822266)"><text font-family="DengXian" font-style="normal" font-weight="normal" font-stretch="normal" font-size="7.5pt" fill="#FFFFFF" x="0.8095589" y="18.40562"><tspan>控制渲染</tspan></text><text font-family="DengXian" font-style="normal" font-weight="normal" font-stretch="normal" font-size="7.5pt" fill="#FFFFFF" x="10.80956" y="29.20562"><tspan>顺序</tspan></text></g>
    <g transform="matrix(1, 0, 0, 1, 63.4200439, 36.846405)"><text font-family="Calibri" font-style="normal" font-weight="normal" font-stretch="normal" font-size="8.625pt" fill="#000000" x="0" y="27.17106"><tspan>•</tspan></text><text font-family="DengXian" font-style="normal" font-weight="normal" font-stretch="normal" font-size="8.25pt" fill="#000000" x="5.75" y="27.17106"><tspan>画家算法</tspan></text><text font-family="Calibri" font-style="normal" font-weight="normal" font-stretch="normal" font-size="8.625pt" fill="#FF0000" x="0" y="41.03106"><tspan>•</tspan></text><text font-family="Calibri" font-style="normal" font-weight="normal" font-stretch="normal" font-size="8.25pt" fill="#FF0000" x="5.75" y="41.03106"><tspan>Z-Buffer</tspan><tspan font-family="DengXian" fill="#000000">算</tspan></text><text font-family="DengXian" font-style="normal" font-weight="normal" font-stretch="normal" font-size="8.25pt" fill="#000000" x="4.5" y="52.91106"><tspan>法</tspan></text></g>
    <g transform="matrix(1, 0, 0, 1, -79, -360)">
      <path fill="#F8D7CD" fill-opacity="0.9" d="M271.5 395.85L340.96 395.85 340.96 379.67 394.88 433.59 340.96 487.51 340.96 471.34 271.5 471.34z" />
      <path stroke-width="1" stroke="#F8D7CD" stroke-opacity="0.9" fill="none" d="M271.5 395.85L340.96 395.85 340.96 379.67 394.88 433.59 340.96 487.51 340.96 471.34 271.5 471.34z" />
    </g>
    <g transform="matrix(1, 0, 0, 1, -79, -360)">
      <path fill="#ED7D31" d="M240.66 433.59C240.66 416.56 254.47 402.75 271.5 402.75 288.54 402.75 302.35 416.56 302.35 433.59 302.35 450.63 288.54 464.44 271.5 464.44L271.5 464.44C254.47 464.44 240.66 450.63 240.66 433.59z" />
      <path stroke-width="1" stroke="#FFFFFF" fill="none" d="M240.66 433.59C240.66 416.56 254.47 402.75 271.5 402.75 288.54 402.75 302.35 416.56 302.35 433.59 302.35 450.63 288.54 464.44 271.5 464.44L271.5 464.44C254.47 464.44 240.66 450.63 240.66 433.59z" />
    </g>
    <g transform="matrix(1, 0, 0, 1, 170.694839, 51.7822266)"><text font-family="DengXian" font-style="normal" font-weight="normal" font-stretch="normal" font-size="6.75pt" fill="#FFFFFF" x="9.309559" y="14.78601"><tspan>控制</tspan><tspan font-family="Calibri">Z-</tspan></text><text font-family="Calibri" font-style="normal" font-weight="normal" font-stretch="normal" font-size="6.75pt" fill="#FFFFFF" x="1.434559" y="24.50602"><tspan>Buffer</tspan><tspan font-family="DengXian">对深</tspan></text><text font-family="DengXian" font-style="normal" font-weight="normal" font-stretch="normal" font-size="6.75pt" fill="#FFFFFF" x="3.809559" y="34.22602"><tspan>度的存储</tspan></text></g>
    <g transform="matrix(1, 0, 0, 1, 225.347778, 36.846405)"><text font-family="Calibri" font-style="normal" font-weight="normal" font-stretch="normal" font-size="8.625pt" fill="#FF0000" x="0" y="33.14179"><tspan>•</tspan></text><text font-family="Calibri" font-style="normal" font-weight="normal" font-stretch="normal" font-size="8.25pt" fill="#FF0000" x="5.75" y="33.14179"><tspan>Z Test</tspan></text><text font-family="Calibri" font-style="normal" font-weight="normal" font-stretch="normal" font-size="8.625pt" fill="#FF0000" x="0" y="47.00179"><tspan>•</tspan></text><text font-family="Calibri" font-style="normal" font-weight="normal" font-stretch="normal" font-size="8.25pt" fill="#FF0000" x="5.75" y="47.00179"><tspan>Z Write</tspan></text></g>
    <g transform="matrix(1, 0, 0, 1, -79, -360)">
      <path fill="#F8D7CD" fill-opacity="0.9" d="M433.43 395.85L502.88 395.85 502.88 379.67 556.81 433.59 502.88 487.51 502.88 471.34 433.43 471.34z" />
      <path stroke-width="1" stroke="#F8D7CD" stroke-opacity="0.9" fill="none" d="M433.43 395.85L502.88 395.85 502.88 379.67 556.81 433.59 502.88 487.51 502.88 471.34 433.43 471.34z" />
    </g>
    <g transform="matrix(1, 0, 0, 1, -79, -360)">
      <path fill="#ED7D31" d="M402.59 433.59C402.59 416.56 416.4 402.75 433.43 402.75 450.47 402.75 464.28 416.56 464.28 433.59L464.28 433.59C464.28 450.63 450.47 464.44 433.43 464.44L433.43 464.44C416.4 464.44 402.59 450.63 402.59 433.59z" />
      <path stroke-width="1" stroke="#FFFFFF" fill="none" d="M402.59 433.59C402.59 416.56 416.4 402.75 433.43 402.75 450.47 402.75 464.28 416.56 464.28 433.59L464.28 433.59C464.28 450.63 450.47 464.44 433.43 464.44L433.43 464.44C416.4 464.44 402.59 450.63 402.59 433.59z" />
    </g>
    <g transform="matrix(1, 0, 0, 1, 333.622528, 52.7822266)"><text font-family="DengXian" font-style="normal" font-weight="normal" font-stretch="normal" font-size="7.5pt" fill="#FFFFFF" x="0.8095589" y="13.00562"><tspan>控制不同</tspan></text><text font-family="DengXian" font-style="normal" font-weight="normal" font-stretch="normal" font-size="7.5pt" fill="#FFFFFF" x="0.8095589" y="23.80562"><tspan>类型物体</tspan></text><text font-family="DengXian" font-style="normal" font-weight="normal" font-stretch="normal" font-size="7.5pt" fill="#FFFFFF" x="0.8095589" y="34.60562"><tspan>渲染顺序</tspan></text></g>
    <g transform="matrix(1, 0, 0, 1, 387.275482, 36.846405)"><text font-family="Calibri" font-style="normal" font-weight="normal" font-stretch="normal" font-size="8.625pt" fill="#000000" x="0" y="20.24106"><tspan>•</tspan></text><text font-family="DengXian" font-style="normal" font-weight="normal" font-stretch="normal" font-size="8.25pt" fill="#000000" x="5.75" y="20.24106"><tspan>透明物体</tspan></text><text font-family="Calibri" font-style="normal" font-weight="normal" font-stretch="normal" font-size="8.625pt" fill="#000000" x="0" y="34.10106"><tspan>•</tspan></text><text font-family="DengXian" font-style="normal" font-weight="normal" font-stretch="normal" font-size="8.25pt" fill="#000000" x="5.75" y="34.10106"><tspan>不透明物</tspan></text><text font-family="DengXian" font-style="normal" font-weight="normal" font-stretch="normal" font-size="8.25pt" fill="#000000" x="4.5" y="45.98106"><tspan>体</tspan></text><text font-family="Calibri" font-style="normal" font-weight="normal" font-stretch="normal" font-size="8.625pt" fill="#FF0000" x="0" y="59.84106"><tspan>•</tspan></text><text font-family="DengXian" font-style="normal" font-weight="normal" font-stretch="normal" font-size="8.25pt" fill="#FF0000" x="5.75" y="59.84106"><tspan>渲染队列</tspan></text></g>
    <g transform="matrix(1, 0, 0, 1, -79, -360)">
      <path fill="#F8D7CD" fill-opacity="0.9" d="M595.36 395.85L664.81 395.85 664.81 379.67 718.73 433.59 664.81 487.51 664.81 471.34 595.36 471.34z" />
      <path stroke-width="1" stroke="#F8D7CD" stroke-opacity="0.9" fill="none" d="M595.36 395.85L664.81 395.85 664.81 379.67 718.73 433.59 664.81 487.51 664.81 471.34 595.36 471.34z" />
    </g>
    <g transform="matrix(1, 0, 0, 1, -79, -360)">
      <path fill="#ED7D31" d="M564.52 433.59C564.52 416.56 578.33 402.75 595.36 402.75 612.39 402.75 626.2 416.56 626.2 433.59 626.2 450.63 612.39 464.44 595.36 464.44L595.36 464.44C578.33 464.44 564.52 450.63 564.52 433.59z" />
      <path stroke-width="1" stroke="#FFFFFF" fill="none" d="M564.52 433.59C564.52 416.56 578.33 402.75 595.36 402.75 612.39 402.75 626.2 416.56 626.2 433.59 626.2 450.63 612.39 464.44 595.36 464.44L595.36 464.44C578.33 464.44 564.52 450.63 564.52 433.59z" />
    </g>
    <g transform="matrix(1, 0, 0, 1, 495.5503, 52.7822266)"><text font-family="DengXian" font-style="normal" font-weight="normal" font-stretch="normal" font-size="7.5pt" fill="#FFFFFF" x="10.80956" y="18.40562"><tspan>减少</tspan></text><text font-family="Calibri" font-style="normal" font-weight="normal" font-stretch="normal" font-size="7.5pt" fill="#FFFFFF" x="1.372059" y="29.23356"><tspan>overdraw</tspan></text></g>
    <g transform="matrix(1, 0, 0, 1, 549.203247, 35.846405)"><text font-family="Calibri" font-style="normal" font-weight="normal" font-stretch="normal" font-size="8.625pt" fill="#FF0000" x="0" y="27.21178"><tspan>•</tspan></text><text font-family="Calibri" font-style="normal" font-weight="normal" font-stretch="normal" font-size="8.25pt" fill="#FF0000" x="5.75" y="27.21178"><tspan>Early-Z</tspan></text><text font-family="Calibri" font-style="normal" font-weight="normal" font-stretch="normal" font-size="8.625pt" fill="#000000" x="0" y="41.07178"><tspan>•</tspan></text><text font-family="Calibri" font-style="normal" font-weight="normal" font-stretch="normal" font-size="8.25pt" fill="#000000" x="5.75" y="41.07178"><tspan>Z-cull</tspan></text><text font-family="Calibri" font-style="normal" font-weight="normal" font-stretch="normal" font-size="8.625pt" fill="#000000" x="0" y="54.93179"><tspan>•</tspan></text><text font-family="Calibri" font-style="normal" font-weight="normal" font-stretch="normal" font-size="8.25pt" fill="#000000" x="5.75" y="54.93179"><tspan>Z-check</tspan></text></g>
  </g>
</svg>