<svg xmlns="http://www.w3.org/2000/svg" xmlns:xlink="http://www.w3.org/1999/xlink" style="vertical-align:-1.755ex" width="9.853ex" height="4.509ex" viewBox="0 -1186 4242.2 1941.5"><defs><path id="a" stroke-width="1" d="M370 305h-21l-36 15-16 38q0 23 15 38 5 5 5 6t-10 2q-26 4-49 4-49 0-80-32-47-47-47-157 0-82 31-129 41-61 110-61 41 0 66 26t36 62q2 8 5 10t16 2h14q6-6 6-9 0-4-4-16t-16-33-29-38-48-31-69-13q-86 0-150 64T34 214q0 104 65 169t151 65 120-27 34-64q0-23-17-37z"/><path id="b" stroke-width="1" d="M28 214q0 95 65 164t157 70q90 0 155-68t66-165q0-95-64-160T250-10q-97 0-159 67T28 214zM250 30q122 0 122 163v57q0 22-1 38t-7 38-16 36-31 28-49 20q-5 1-16 1-30 0-57-12-43-22-56-61t-13-92v-20q0-96 19-135 32-61 105-61z"/><path id="c" stroke-width="1" d="M295 316q0 40-27 69t-78 29q-36 0-62-13-30-19-30-52-1-5 0-13t16-24 43-25q18-5 44-9t44-9 32-13q17-8 33-20t32-41 17-62q0-62-38-102T198-10h-8q-52 0-96 36l-8-7-9-9Q71 4 65-1L54-11H42q-3 0-9 6v137q0 21 2 25t10 5h9q12 0 16-4t5-12 7-27 19-42q35-51 97-51 97 0 97 78 0 29-18 47-20 24-83 36t-83 23q-36 17-57 46t-21 62q0 39 17 66t43 40 50 18 44 5h11q40 0 70-15l15-8 9 7q10 9 22 17h12q3 0 9-6V310l-6-6h-28q-6 6-6 12z"/><path id="d" stroke-width="1" d="M35 200q0 102 39 215t106 195 139 94h8q7 0 12 1 54-4 84-49 39-60 39-161 0-115-45-234T302 66 168-10h-7q-36 0-62 20T60 63t-19 67-6 70zm348 366q0 102-53 102-36 0-70-45t-56-102-34-100-13-50q49-1 97-1l97 1q1 1 8 33t16 80 8 82zM113 132q0-106 53-106 15 0 32 10t41 38 48 87 48 146l5 17H145q0-3-9-38t-16-78-7-76z"/><path id="e" stroke-width="1" d="M56 347q0 13 14 20h637q15-8 15-20 0-11-14-19l-318-1H72q-16 5-16 20zm0-194q0 15 16 20h636q14-10 14-20 0-13-15-20H70q-14 7-14 20z"/><path id="f" stroke-width="1" d="M52 289q7 42 54 97t116 56q35 0 64-18t43-45q42 63 101 63 37 0 64-22t28-59q0-29-14-47t-27-22-23-4q-19 0-31 11t-12 29q0 46 50 63-11 13-40 13-13 0-19-2-38-16-56-66-60-221-60-258 0-28 16-40t35-12q37 0 73 33t49 81q3 10 6 11t16 2h4q15 0 15-8 0-1-2-11-16-57-62-101T333-11q-70 0-106 63-41-62-94-62h-6q-49 0-70 26T35 71q0 32 19 52t45 20q43 0 43-42 0-20-12-35t-23-20-13-5l-3-1q0-1 6-4t16-7 19-3q36 0 62 45 9 16 23 68t28 108 16 66q5 27 5 39 0 28-15 40t-34 12q-40 0-75-32t-49-82q-2-9-5-10t-16-2H58q-6 6-6 11z"/><path id="g" stroke-width="1" d="M21 287q1 3 2 8t5 22 10 31 15 33 20 30 26 22 33 9q29 0 51-12t31-22 11-20q2-6 3-6t8 7q48 52 111 52h3q48 0 72-41 8-19 8-37 0-30-13-48t-26-23-25-4q-20 0-32 11t-12 29q0 48 56 64-22 13-36 13-56 0-103-74-10-16-15-33t-34-133Q156 25 151 16q-13-27-43-27-13 0-21 6T76 7t-2 10q0 13 40 172t40 177q0 39-26 39-21 0-36-28t-24-61-11-36q-2-2-16-2H27q-6 6-6 9z"/></defs><g fill="currentColor" stroke="currentColor" stroke-width="0" transform="scale(1 -1)"><use xlink:href="#a"/><use x="444" xlink:href="#b"/><use x="945" xlink:href="#c"/><use x="1506" xlink:href="#d"/><use x="2253" xlink:href="#e"/><g transform="translate(3428)"><path stroke="none" d="M0 220h692v60H0z"/><use x="60" y="676" xlink:href="#f"/><use x="120" y="-686" xlink:href="#g"/></g></g></svg>