<?xml version="1.0" encoding="UTF-8"?>
<svg xmlns="http://www.w3.org/2000/svg" xmlns:xlink="http://www.w3.org/1999/xlink" width="314.666667" height="138.666667" viewBox="0 0 314.666667 138.666667" version="1.1">
<g id="surface1">
<path style="fill:none;stroke-width:1;stroke-linecap:round;stroke-linejoin:round;stroke:rgb(0%,0%,0%);stroke-opacity:1;stroke-miterlimit:10;" d="M 142.600586 47.999023 L 237.800781 47.999023 L 237.800781 149.999023 L 142.600586 149.999023 Z M 142.600586 47.999023 " transform="matrix(1.333333,0,0,1.333333,-189.333333,-62.666667)"/>
<path style=" stroke:none;fill-rule:nonzero;fill:rgb(0%,0%,0%);fill-opacity:1;" d="M 47.527344 127.1875 L 48.546875 127.332031 C 48.589844 127.652344 48.703125 127.878906 48.902344 128.019531 C 49.164062 128.214844 49.527344 128.3125 49.984375 128.3125 C 50.46875 128.3125 50.84375 128.214844 51.109375 128.019531 C 51.371094 127.824219 51.554688 127.550781 51.652344 127.207031 C 51.703125 126.984375 51.726562 126.535156 51.714844 125.855469 C 51.257812 126.394531 50.683594 126.667969 50.007812 126.667969 C 49.140625 126.667969 48.476562 126.363281 48.007812 125.75 C 47.546875 125.125 47.320312 124.386719 47.320312 123.519531 C 47.320312 122.925781 47.421875 122.375 47.632812 121.875 C 47.851562 121.375 48.164062 120.996094 48.570312 120.730469 C 48.96875 120.453125 49.449219 120.3125 50.007812 120.3125 C 50.742188 120.3125 51.34375 120.605469 51.820312 121.1875 L 51.820312 120.4375 L 52.796875 120.4375 L 52.796875 125.8125 C 52.796875 126.78125 52.695312 127.46875 52.484375 127.875 C 52.289062 128.277344 51.976562 128.59375 51.546875 128.832031 C 51.132812 129.066406 50.609375 129.1875 49.984375 129.1875 C 49.234375 129.1875 48.632812 129.019531 48.171875 128.6875 C 47.726562 128.355469 47.511719 127.855469 47.527344 127.1875 Z M 48.402344 123.4375 C 48.402344 124.261719 48.558594 124.855469 48.882812 125.230469 C 49.199219 125.605469 49.601562 125.792969 50.089844 125.792969 C 50.574219 125.792969 50.984375 125.605469 51.320312 125.230469 C 51.652344 124.855469 51.820312 124.269531 51.820312 123.480469 C 51.820312 122.71875 51.640625 122.140625 51.296875 121.75 C 50.964844 121.363281 50.558594 121.167969 50.089844 121.167969 C 49.617188 121.167969 49.214844 121.363281 48.882812 121.75 C 48.558594 122.125 48.402344 122.6875 48.402344 123.4375 Z M 48.402344 123.4375 "/>
<path style=" stroke:none;fill-rule:nonzero;fill:rgb(0%,0%,0%);fill-opacity:1;" d="M 54.390625 129.042969 L 54.390625 120.4375 L 55.347656 120.4375 L 55.347656 121.25 C 55.566406 120.933594 55.816406 120.699219 56.097656 120.542969 C 56.390625 120.390625 56.742188 120.3125 57.160156 120.3125 C 57.6875 120.3125 58.148438 120.453125 58.554688 120.730469 C 58.957031 120.996094 59.265625 121.375 59.472656 121.875 C 59.679688 122.375 59.785156 122.917969 59.785156 123.5 C 59.785156 124.140625 59.664062 124.71875 59.429688 125.230469 C 59.207031 125.746094 58.878906 126.140625 58.453125 126.417969 C 58.019531 126.675781 57.5625 126.8125 57.078125 126.8125 C 56.726562 126.8125 56.414062 126.734375 56.140625 126.582031 C 55.859375 126.433594 55.628906 126.246094 55.453125 126.019531 L 55.453125 129.042969 Z M 55.347656 123.582031 C 55.347656 124.390625 55.503906 124.988281 55.828125 125.375 C 56.160156 125.75 56.554688 125.9375 57.015625 125.9375 C 57.472656 125.9375 57.867188 125.746094 58.203125 125.355469 C 58.546875 124.953125 58.722656 124.332031 58.722656 123.5 C 58.722656 122.707031 58.554688 122.121094 58.222656 121.730469 C 57.898438 121.328125 57.515625 121.125 57.054688 121.125 C 56.609375 121.125 56.210938 121.34375 55.867188 121.769531 C 55.519531 122.1875 55.347656 122.792969 55.347656 123.582031 Z M 55.347656 123.582031 "/>
<path style=" stroke:none;fill-rule:nonzero;fill:rgb(0%,0%,0%);fill-opacity:1;" d="M 65.148438 126.667969 L 65.148438 125.75 C 64.65625 126.457031 64 126.8125 63.167969 126.8125 C 62.804688 126.8125 62.464844 126.738281 62.148438 126.605469 C 61.824219 126.453125 61.585938 126.269531 61.417969 126.0625 C 61.261719 125.855469 61.15625 125.597656 61.105469 125.292969 C 61.0625 125.082031 61.042969 124.75 61.042969 124.292969 L 61.042969 120.4375 L 62.085938 120.4375 L 62.085938 123.894531 C 62.085938 124.453125 62.109375 124.824219 62.167969 125 C 62.21875 125.28125 62.355469 125.5 62.5625 125.667969 C 62.78125 125.824219 63.054688 125.894531 63.375 125.894531 C 63.695312 125.894531 63.992188 125.824219 64.273438 125.667969 C 64.546875 125.5 64.742188 125.28125 64.855469 125 C 64.964844 124.722656 65.023438 124.3125 65.023438 123.769531 L 65.023438 120.4375 L 66.085938 120.4375 L 66.085938 126.667969 Z M 65.148438 126.667969 "/>
<path style=" stroke:none;fill-rule:nonzero;fill:rgb(0%,0%,0%);fill-opacity:1;" d="M 69.757812 129.1875 C 69.175781 128.449219 68.679688 127.59375 68.28125 126.625 C 67.875 125.640625 67.675781 124.621094 67.675781 123.5625 C 67.675781 122.636719 67.828125 121.738281 68.132812 120.875 C 68.476562 119.890625 69.019531 118.910156 69.757812 117.9375 L 70.507812 117.9375 C 70.035156 118.746094 69.722656 119.324219 69.570312 119.667969 C 69.332031 120.207031 69.144531 120.769531 69.007812 121.355469 C 68.84375 122.09375 68.757812 122.828125 68.757812 123.5625 C 68.757812 125.4375 69.34375 127.3125 70.507812 129.1875 Z M 69.757812 129.1875 "/>
<path style=" stroke:none;fill-rule:nonzero;fill:rgb(0%,0%,0%);fill-opacity:1;" d="M 71.441406 122.4375 C 71.441406 121.425781 71.546875 120.605469 71.753906 119.980469 C 71.964844 119.355469 72.265625 118.875 72.671875 118.542969 C 73.089844 118.207031 73.609375 118.042969 74.234375 118.042969 C 74.703125 118.042969 75.113281 118.140625 75.464844 118.332031 C 75.808594 118.515625 76.09375 118.78125 76.316406 119.125 C 76.535156 119.472656 76.714844 119.894531 76.839844 120.394531 C 76.972656 120.894531 77.046875 121.578125 77.046875 122.4375 C 77.046875 123.4375 76.941406 124.25 76.734375 124.875 C 76.527344 125.488281 76.214844 125.96875 75.796875 126.3125 C 75.390625 126.644531 74.871094 126.8125 74.234375 126.8125 C 73.410156 126.8125 72.765625 126.515625 72.296875 125.917969 C 71.722656 125.207031 71.441406 124.050781 71.441406 122.4375 Z M 72.527344 122.4375 C 72.527344 123.84375 72.683594 124.78125 73.003906 125.25 C 73.339844 125.707031 73.746094 125.9375 74.234375 125.9375 C 74.71875 125.9375 75.128906 125.707031 75.464844 125.25 C 75.796875 124.78125 75.964844 123.84375 75.964844 122.4375 C 75.964844 121.019531 75.796875 120.082031 75.464844 119.625 C 75.128906 119.15625 74.71875 118.917969 74.234375 118.917969 C 73.746094 118.917969 73.359375 119.121094 73.066406 119.519531 C 72.703125 120.050781 72.527344 121.019531 72.527344 122.4375 Z M 72.527344 122.4375 "/>
<path style=" stroke:none;fill-rule:nonzero;fill:rgb(0%,0%,0%);fill-opacity:1;" d="M 79.09375 129.1875 L 78.34375 129.1875 C 79.511719 127.3125 80.09375 125.4375 80.09375 123.5625 C 80.09375 122.828125 80.011719 122.097656 79.84375 121.375 C 79.703125 120.792969 79.515625 120.230469 79.28125 119.6875 C 79.125 119.34375 78.8125 118.761719 78.34375 117.9375 L 79.09375 117.9375 C 79.828125 118.910156 80.371094 119.890625 80.71875 120.875 C 81.023438 121.738281 81.179688 122.636719 81.179688 123.5625 C 81.179688 124.621094 80.976562 125.640625 80.574219 126.625 C 80.167969 127.59375 79.679688 128.449219 79.09375 129.1875 Z M 79.09375 129.1875 "/>
<path style=" stroke:none;fill-rule:nonzero;fill:rgb(40.000001%,74.901962%,100%);fill-opacity:1;" d="M 20.597656 106.53125 L 54.597656 106.53125 L 54.597656 72.53125 L 20.597656 72.53125 Z M 20.597656 106.53125 "/>
<path style="fill:none;stroke-width:1;stroke-linecap:round;stroke-linejoin:round;stroke:rgb(0%,0%,0%);stroke-opacity:1;stroke-miterlimit:10;" d="M 157.448242 101.398438 L 182.948242 101.398438 L 182.948242 126.898438 L 157.448242 126.898438 Z M 157.448242 101.398438 " transform="matrix(1.333333,0,0,1.333333,-189.333333,-62.666667)"/>
<path style=" stroke:none;fill-rule:nonzero;fill:rgb(0%,0%,0%);fill-opacity:1;" d="M 41.664062 92.867188 L 41.664062 92.574219 C 41.246094 92.554688 41.058594 92.410156 40.496094 91.535156 L 38.308594 88.136719 L 39.269531 86.804688 C 40.308594 85.347656 40.621094 85.136719 41.519531 85.054688 L 41.519531 84.761719 L 38.519531 84.761719 L 38.519531 85.054688 L 38.769531 85.074219 C 39.226562 85.117188 39.394531 85.222656 39.394531 85.492188 C 39.394531 85.761719 39.246094 85.992188 38.683594 86.761719 L 38.019531 87.699219 L 36.851562 85.886719 C 36.707031 85.660156 36.683594 85.597656 36.683594 85.449219 C 36.683594 85.199219 36.808594 85.097656 37.246094 85.074219 L 37.621094 85.054688 L 37.621094 84.761719 L 33.476562 84.761719 L 33.476562 85.054688 C 33.914062 85.097656 34.058594 85.222656 34.433594 85.742188 L 36.808594 89.242188 L 34.707031 91.886719 C 34.351562 92.347656 34.058594 92.492188 33.457031 92.574219 L 33.457031 92.867188 L 36.457031 92.867188 L 36.457031 92.574219 C 35.726562 92.492188 35.496094 92.367188 35.496094 92.054688 C 35.496094 91.804688 35.726562 91.429688 36.621094 90.222656 L 37.082031 89.617188 L 38.289062 91.554688 C 38.433594 91.785156 38.539062 92.054688 38.539062 92.199219 C 38.539062 92.410156 38.332031 92.511719 37.914062 92.535156 L 37.582031 92.574219 L 37.582031 92.867188 Z M 41.664062 92.867188 "/>
<path style="fill:none;stroke-width:1;stroke-linecap:round;stroke-linejoin:round;stroke:rgb(0%,0%,0%);stroke-opacity:1;stroke-miterlimit:10;" d="M 281.602539 47.999023 L 376.799805 47.999023 L 376.799805 149.999023 L 281.602539 149.999023 Z M 281.602539 47.999023 " transform="matrix(1.333333,0,0,1.333333,-189.333333,-62.666667)"/>
<path style=" stroke:none;fill-rule:nonzero;fill:rgb(0%,0%,0%);fill-opacity:1;" d="M 232.859375 127.1875 L 233.882812 127.332031 C 233.921875 127.652344 234.039062 127.878906 234.234375 128.019531 C 234.496094 128.214844 234.859375 128.3125 235.320312 128.3125 C 235.804688 128.3125 236.179688 128.214844 236.445312 128.019531 C 236.703125 127.824219 236.886719 127.550781 236.984375 127.207031 C 237.039062 126.984375 237.058594 126.535156 237.046875 125.855469 C 236.589844 126.394531 236.015625 126.667969 235.339844 126.667969 C 234.476562 126.667969 233.808594 126.363281 233.339844 125.75 C 232.882812 125.125 232.652344 124.386719 232.652344 123.519531 C 232.652344 122.925781 232.757812 122.375 232.964844 121.875 C 233.183594 121.375 233.496094 120.996094 233.902344 120.730469 C 234.304688 120.453125 234.78125 120.3125 235.339844 120.3125 C 236.074219 120.3125 236.679688 120.605469 237.152344 121.1875 L 237.152344 120.4375 L 238.132812 120.4375 L 238.132812 125.8125 C 238.132812 126.78125 238.027344 127.46875 237.820312 127.875 C 237.621094 128.277344 237.308594 128.59375 236.882812 128.832031 C 236.464844 129.066406 235.945312 129.1875 235.320312 129.1875 C 234.570312 129.1875 233.964844 129.019531 233.507812 128.6875 C 233.058594 128.355469 232.84375 127.855469 232.859375 127.1875 Z M 233.734375 123.4375 C 233.734375 124.261719 233.890625 124.855469 234.214844 125.230469 C 234.53125 125.605469 234.933594 125.792969 235.421875 125.792969 C 235.90625 125.792969 236.320312 125.605469 236.652344 125.230469 C 236.984375 124.855469 237.152344 124.269531 237.152344 123.480469 C 237.152344 122.71875 236.976562 122.140625 236.632812 121.75 C 236.296875 121.363281 235.890625 121.167969 235.421875 121.167969 C 234.949219 121.167969 234.546875 121.363281 234.214844 121.75 C 233.890625 122.125 233.734375 122.6875 233.734375 123.4375 Z M 233.734375 123.4375 "/>
<path style=" stroke:none;fill-rule:nonzero;fill:rgb(0%,0%,0%);fill-opacity:1;" d="M 239.722656 129.042969 L 239.722656 120.4375 L 240.679688 120.4375 L 240.679688 121.25 C 240.898438 120.933594 241.148438 120.699219 241.429688 120.542969 C 241.722656 120.390625 242.078125 120.3125 242.492188 120.3125 C 243.019531 120.3125 243.484375 120.453125 243.890625 120.730469 C 244.289062 120.996094 244.597656 121.375 244.804688 121.875 C 245.015625 122.375 245.117188 122.917969 245.117188 123.5 C 245.117188 124.140625 245 124.71875 244.765625 125.230469 C 244.539062 125.746094 244.210938 126.140625 243.785156 126.417969 C 243.351562 126.675781 242.894531 126.8125 242.410156 126.8125 C 242.0625 126.8125 241.75 126.734375 241.472656 126.582031 C 241.191406 126.433594 240.960938 126.246094 240.785156 126.019531 L 240.785156 129.042969 Z M 240.679688 123.582031 C 240.679688 124.390625 240.835938 124.988281 241.160156 125.375 C 241.492188 125.75 241.890625 125.9375 242.347656 125.9375 C 242.804688 125.9375 243.203125 125.746094 243.535156 125.355469 C 243.878906 124.953125 244.054688 124.332031 244.054688 123.5 C 244.054688 122.707031 243.890625 122.121094 243.554688 121.730469 C 243.234375 121.328125 242.847656 121.125 242.390625 121.125 C 241.941406 121.125 241.546875 121.34375 241.203125 121.769531 C 240.851562 122.1875 240.679688 122.792969 240.679688 123.582031 Z M 240.679688 123.582031 "/>
<path style=" stroke:none;fill-rule:nonzero;fill:rgb(0%,0%,0%);fill-opacity:1;" d="M 250.480469 126.667969 L 250.480469 125.75 C 249.992188 126.457031 249.335938 126.8125 248.5 126.8125 C 248.136719 126.8125 247.796875 126.738281 247.480469 126.605469 C 247.15625 126.453125 246.917969 126.269531 246.75 126.0625 C 246.59375 125.855469 246.492188 125.597656 246.4375 125.292969 C 246.398438 125.082031 246.375 124.75 246.375 124.292969 L 246.375 120.4375 L 247.417969 120.4375 L 247.417969 123.894531 C 247.417969 124.453125 247.445312 124.824219 247.5 125 C 247.554688 125.28125 247.6875 125.5 247.898438 125.667969 C 248.117188 125.824219 248.386719 125.894531 248.710938 125.894531 C 249.027344 125.894531 249.324219 125.824219 249.605469 125.667969 C 249.882812 125.5 250.074219 125.28125 250.1875 125 C 250.296875 124.722656 250.355469 124.3125 250.355469 123.769531 L 250.355469 120.4375 L 251.417969 120.4375 L 251.417969 126.667969 Z M 250.480469 126.667969 "/>
<path style=" stroke:none;fill-rule:nonzero;fill:rgb(0%,0%,0%);fill-opacity:1;" d="M 255.09375 129.1875 C 254.507812 128.449219 254.015625 127.59375 253.613281 126.625 C 253.207031 125.640625 253.007812 124.621094 253.007812 123.5625 C 253.007812 122.636719 253.160156 121.738281 253.46875 120.875 C 253.8125 119.890625 254.351562 118.910156 255.09375 117.9375 L 255.84375 117.9375 C 255.367188 118.746094 255.054688 119.324219 254.90625 119.667969 C 254.664062 120.207031 254.476562 120.769531 254.34375 121.355469 C 254.175781 122.09375 254.09375 122.828125 254.09375 123.5625 C 254.09375 125.4375 254.675781 127.3125 255.84375 129.1875 Z M 255.09375 129.1875 "/>
<path style=" stroke:none;fill-rule:nonzero;fill:rgb(0%,0%,0%);fill-opacity:1;" d="M 260.753906 126.667969 L 259.691406 126.667969 L 259.691406 119.9375 C 259.441406 120.1875 259.109375 120.4375 258.691406 120.6875 C 258.277344 120.925781 257.90625 121.097656 257.589844 121.207031 L 257.589844 120.1875 C 258.171875 119.925781 258.683594 119.597656 259.128906 119.207031 C 259.574219 118.808594 259.886719 118.417969 260.066406 118.042969 L 260.753906 118.042969 Z M 260.753906 126.667969 "/>
<path style=" stroke:none;fill-rule:nonzero;fill:rgb(0%,0%,0%);fill-opacity:1;" d="M 264.429688 129.1875 L 263.679688 129.1875 C 264.84375 127.3125 265.429688 125.4375 265.429688 123.5625 C 265.429688 122.828125 265.34375 122.097656 265.179688 121.375 C 265.039062 120.792969 264.851562 120.230469 264.617188 119.6875 C 264.460938 119.34375 264.148438 118.761719 263.679688 117.9375 L 264.429688 117.9375 C 265.164062 118.910156 265.703125 119.890625 266.054688 120.875 C 266.355469 121.738281 266.511719 122.636719 266.511719 123.5625 C 266.511719 124.621094 266.308594 125.640625 265.90625 126.625 C 265.5 127.59375 265.011719 128.449219 264.429688 129.1875 Z M 264.429688 129.1875 "/>
<path style=" stroke:none;fill-rule:nonzero;fill:rgb(40.000001%,74.901962%,100%);fill-opacity:1;" d="M 204.863281 106.53125 L 238.863281 106.53125 L 238.863281 72.53125 L 204.863281 72.53125 Z M 204.863281 106.53125 "/>
<path style="fill:none;stroke-width:1;stroke-linecap:round;stroke-linejoin:round;stroke:rgb(0%,0%,0%);stroke-opacity:1;stroke-miterlimit:10;" d="M 295.647461 101.398438 L 321.147461 101.398438 L 321.147461 126.898438 L 295.647461 126.898438 Z M 295.647461 101.398438 " transform="matrix(1.333333,0,0,1.333333,-189.333333,-62.666667)"/>
<path style=" stroke:none;fill-rule:nonzero;fill:rgb(0%,0%,0%);fill-opacity:1;" d="M 225.46875 89.972656 L 225.15625 89.972656 C 224.824219 90.992188 224.65625 91.492188 223.988281 91.972656 C 223.488281 92.324219 222.699219 92.449219 221.550781 92.449219 L 220.574219 92.449219 L 225.113281 84.949219 L 225.113281 84.761719 L 218.84375 84.761719 L 218.574219 87.242188 L 218.90625 87.242188 C 219.449219 85.511719 219.949219 85.285156 221.78125 85.222656 L 222.78125 85.179688 L 218.199219 92.679688 L 218.199219 92.867188 L 225.15625 92.867188 Z M 225.46875 89.972656 "/>
<path style=" stroke:none;fill-rule:nonzero;fill:rgb(40.000001%,74.901962%,100%);fill-opacity:1;" d="M 260.332031 106.53125 L 294.332031 106.53125 L 294.332031 72.53125 L 260.332031 72.53125 Z M 260.332031 106.53125 "/>
<path style="fill:none;stroke-width:1;stroke-linecap:round;stroke-linejoin:round;stroke:rgb(0%,0%,0%);stroke-opacity:1;stroke-miterlimit:10;" d="M 337.249023 101.398438 L 362.749023 101.398438 L 362.749023 126.898438 L 337.249023 126.898438 Z M 337.249023 101.398438 " transform="matrix(1.333333,0,0,1.333333,-189.333333,-62.666667)"/>
<path style=" stroke:none;fill-rule:nonzero;fill:rgb(0%,0%,0%);fill-opacity:1;" d="M 281.398438 84.761719 L 278.75 84.761719 L 278.75 85.054688 C 279.5625 85.117188 279.75 85.222656 279.75 85.554688 C 279.75 85.804688 279.585938 86.261719 279.273438 86.785156 L 277.960938 88.910156 L 276.523438 86.136719 C 276.375 85.867188 276.230469 85.535156 276.230469 85.429688 C 276.230469 85.160156 276.398438 85.117188 276.875 85.074219 L 277.210938 85.054688 L 277.210938 84.761719 L 273.1875 84.761719 L 273.1875 85.054688 C 273.585938 85.074219 273.960938 85.347656 274.167969 85.761719 L 276.335938 89.699219 L 276.335938 91.324219 C 276.335938 92.222656 276.210938 92.492188 275.230469 92.574219 L 275.230469 92.867188 L 279.375 92.867188 L 279.375 92.574219 C 278.4375 92.492188 278.273438 92.324219 278.273438 91.386719 L 278.273438 89.261719 L 280.5625 85.511719 C 280.75 85.242188 280.980469 85.117188 281.398438 85.054688 Z M 281.398438 84.761719 "/>
<path style="fill-rule:nonzero;fill:rgb(69.803923%,85.09804%,100%);fill-opacity:1;stroke-width:1;stroke-linecap:round;stroke-linejoin:round;stroke:rgb(0%,0%,0%);stroke-opacity:1;stroke-miterlimit:10;" d="M 338.21582 64.132812 C 343.196289 69.113281 343.196289 77.1875 338.21582 82.165039 C 333.238281 87.145508 325.164062 87.145508 320.183594 82.165039 C 315.206055 77.1875 315.206055 69.113281 320.183594 64.132812 C 325.164062 59.155273 333.238281 59.155273 338.21582 64.132812 " transform="matrix(1.333333,0,0,1.333333,-189.333333,-62.666667)"/>
<path style=" stroke:none;fill-rule:nonzero;fill:rgb(0%,0%,0%);fill-opacity:1;" d="M 249.511719 37.273438 L 249.511719 34.921875 L 247.179688 34.921875 L 247.179688 33.941406 L 249.511719 33.941406 L 249.511719 31.609375 L 250.511719 31.609375 L 250.511719 33.941406 L 252.847656 33.941406 L 252.847656 34.921875 L 250.511719 34.921875 L 250.511719 37.273438 Z M 249.511719 37.273438 "/>
<path style="fill:none;stroke-width:1;stroke-linecap:round;stroke-linejoin:miter;stroke:rgb(0%,0%,0%);stroke-opacity:1;stroke-miterlimit:10;" d="M 314.866211 101.398438 L 320.760742 89.785156 " transform="matrix(1.333333,0,0,1.333333,-189.333333,-62.666667)"/>
<path style="fill:none;stroke-width:1;stroke-linecap:butt;stroke-linejoin:miter;stroke:rgb(0%,0%,0%);stroke-opacity:1;stroke-miterlimit:10;" d="M 322.571289 86.219727 L 320.760742 89.785156 M 319.421875 89.105469 L 322.571289 86.219727 L 322.09668 90.464844 " transform="matrix(1.333333,0,0,1.333333,-189.333333,-62.666667)"/>
<path style="fill:none;stroke-width:1;stroke-linecap:round;stroke-linejoin:miter;stroke:rgb(0%,0%,0%);stroke-opacity:1;stroke-miterlimit:10;" d="M 343.530273 101.398438 L 337.641602 89.785156 " transform="matrix(1.333333,0,0,1.333333,-189.333333,-62.666667)"/>
<path style="fill:none;stroke-width:1;stroke-linecap:butt;stroke-linejoin:miter;stroke:rgb(0%,0%,0%);stroke-opacity:1;stroke-miterlimit:10;" d="M 335.828125 86.219727 L 337.641602 89.785156 M 336.299805 90.464844 L 335.828125 86.219727 L 338.977539 89.105469 " transform="matrix(1.333333,0,0,1.333333,-189.333333,-62.666667)"/>
<path style="fill:none;stroke-width:1;stroke-linecap:round;stroke-linejoin:miter;stroke:rgb(0%,0%,0%);stroke-opacity:1;stroke-miterlimit:10;" d="M 182.948242 114.148438 L 289.75 114.148438 " transform="matrix(1.333333,0,0,1.333333,-189.333333,-62.666667)"/>
<path style="fill:none;stroke-width:1;stroke-linecap:butt;stroke-linejoin:miter;stroke:rgb(0%,0%,0%);stroke-opacity:1;stroke-miterlimit:10;" d="M 293.749023 114.148438 L 289.75 114.148438 M 289.75 112.648438 L 293.749023 114.148438 L 289.75 115.648438 " transform="matrix(1.333333,0,0,1.333333,-189.333333,-62.666667)"/>
<path style=" stroke:none;fill-rule:nonzero;fill:rgb(0%,0%,0%);fill-opacity:1;" d="M 148.800781 77.964844 L 156.214844 77.964844 L 156.214844 77.214844 L 149.195312 77.214844 C 149.320312 76.945312 149.425781 76.652344 149.527344 76.363281 L 148.675781 76.214844 C 148.214844 77.570312 147.382812 78.695312 146.152344 79.632812 L 146.675781 80.300781 C 147.195312 79.902344 147.652344 79.464844 148.050781 79.007812 L 148.050781 82.589844 L 149.589844 82.589844 C 148.945312 83.464844 147.945312 84.175781 146.550781 84.714844 L 147.007812 85.445312 C 147.632812 85.152344 148.195312 84.839844 148.675781 84.507812 C 149.320312 85.070312 150.070312 85.550781 150.882812 85.945312 C 149.632812 86.300781 148.152344 86.507812 146.425781 86.589844 L 146.757812 87.339844 C 148.777344 87.214844 150.488281 86.902344 151.902344 86.382812 C 153.257812 86.902344 154.839844 87.214844 156.589844 87.300781 L 156.800781 86.507812 C 155.382812 86.464844 154.089844 86.257812 152.925781 85.925781 C 153.925781 85.425781 154.714844 84.800781 155.300781 84.027344 L 155.300781 83.402344 L 149.925781 83.402344 C 150.152344 83.152344 150.339844 82.882812 150.527344 82.589844 L 155.277344 82.589844 L 155.277344 78.800781 L 148.214844 78.800781 C 148.425781 78.527344 148.613281 78.257812 148.800781 77.964844 Z M 151.902344 85.589844 C 150.945312 85.214844 150.070312 84.714844 149.300781 84.113281 L 154.238281 84.113281 C 153.652344 84.695312 152.863281 85.195312 151.902344 85.589844 Z M 154.445312 81.902344 L 148.902344 81.902344 L 148.902344 81.007812 L 154.445312 81.007812 Z M 148.902344 80.363281 L 148.902344 79.488281 L 154.445312 79.488281 L 154.445312 80.363281 Z M 148.902344 80.363281 "/>
<path style=" stroke:none;fill-rule:nonzero;fill:rgb(0%,0%,0%);fill-opacity:1;" d="M 159.339844 78.652344 L 161.007812 78.652344 L 161.007812 80.195312 L 158.113281 80.195312 L 158.113281 81.007812 L 161.007812 81.007812 L 161.007812 82.277344 L 158.652344 82.277344 L 158.652344 86.589844 L 159.488281 86.589844 L 159.488281 83.070312 L 161.007812 83.070312 L 161.007812 87.339844 L 161.882812 87.339844 L 161.882812 83.070312 L 163.402344 83.070312 L 163.402344 85.257812 C 163.402344 85.570312 163.214844 85.714844 162.882812 85.714844 L 162.300781 85.695312 L 162.507812 86.507812 L 163.132812 86.507812 C 163.863281 86.507812 164.214844 86.152344 164.214844 85.445312 L 164.214844 82.277344 L 161.882812 82.277344 L 161.882812 81.007812 L 164.464844 81.007812 L 164.464844 80.195312 L 161.882812 80.195312 L 161.882812 78.652344 L 164.132812 78.652344 L 164.132812 77.863281 L 161.882812 77.863281 L 161.882812 76.363281 L 161.007812 76.363281 L 161.007812 77.863281 L 159.632812 77.863281 C 159.714844 77.527344 159.800781 77.175781 159.863281 76.800781 L 159.027344 76.675781 C 158.863281 77.800781 158.488281 78.695312 157.882812 79.339844 L 158.589844 79.839844 C 158.863281 79.527344 159.113281 79.132812 159.339844 78.652344 Z M 165.175781 77.445312 L 165.175781 84.863281 L 166.027344 84.863281 L 166.027344 77.445312 Z M 167.382812 87.214844 C 168.113281 87.214844 168.488281 86.839844 168.488281 86.089844 L 168.488281 76.363281 L 167.632812 76.363281 L 167.632812 85.882812 C 167.632812 86.257812 167.445312 86.464844 167.070312 86.464844 C 166.550781 86.464844 166.007812 86.425781 165.425781 86.402344 L 165.613281 87.214844 Z M 167.382812 87.214844 "/>
</g>
</svg>
