<svg xmlns:xlink="http://www.w3.org/1999/xlink" width="39.366ex" height="9.176ex" style="font-size: 15px; vertical-align: -4.005ex;" viewBox="0 -2226.5 16949 3950.7" role="img" focusable="false" xmlns="http://www.w3.org/2000/svg">
<defs>
<path stroke-width="1" id="E1-MJMAIN-5B" d="M118 -250V750H255V710H158V-210H255V-250H118Z"></path>
<path stroke-width="1" id="E1-MJMATHI-74" d="M26 385Q19 392 19 395Q19 399 22 411T27 425Q29 430 36 430T87 431H140L159 511Q162 522 166 540T173 566T179 586T187 603T197 615T211 624T229 626Q247 625 254 615T261 596Q261 589 252 549T232 470L222 433Q222 431 272 431H323Q330 424 330 420Q330 398 317 385H210L174 240Q135 80 135 68Q135 26 162 26Q197 26 230 60T283 144Q285 150 288 151T303 153H307Q322 153 322 145Q322 142 319 133Q314 117 301 95T267 48T216 6T155 -11Q125 -11 98 4T59 56Q57 64 57 83V101L92 241Q127 382 128 383Q128 385 77 385H26Z"></path>
<path stroke-width="1" id="E1-MJMATHI-75" d="M21 287Q21 295 30 318T55 370T99 420T158 442Q204 442 227 417T250 358Q250 340 216 246T182 105Q182 62 196 45T238 27T291 44T328 78L339 95Q341 99 377 247Q407 367 413 387T427 416Q444 431 463 431Q480 431 488 421T496 402L420 84Q419 79 419 68Q419 43 426 35T447 26Q469 29 482 57T512 145Q514 153 532 153Q551 153 551 144Q550 139 549 130T540 98T523 55T498 17T462 -8Q454 -10 438 -10Q372 -10 347 46Q345 45 336 36T318 21T296 6T267 -6T233 -11Q189 -11 155 7Q103 38 103 113Q103 170 138 262T173 379Q173 380 173 381Q173 390 173 393T169 400T158 404H154Q131 404 112 385T82 344T65 302T57 280Q55 278 41 278H27Q21 284 21 287Z"></path>
<path stroke-width="1" id="E1-MJMATHI-76" d="M173 380Q173 405 154 405Q130 405 104 376T61 287Q60 286 59 284T58 281T56 279T53 278T49 278T41 278H27Q21 284 21 287Q21 294 29 316T53 368T97 419T160 441Q202 441 225 417T249 361Q249 344 246 335Q246 329 231 291T200 202T182 113Q182 86 187 69Q200 26 250 26Q287 26 319 60T369 139T398 222T409 277Q409 300 401 317T383 343T365 361T357 383Q357 405 376 424T417 443Q436 443 451 425T467 367Q467 340 455 284T418 159T347 40T241 -11Q177 -11 139 22Q102 54 102 117Q102 148 110 181T151 298Q173 362 173 380Z"></path>
<path stroke-width="1" id="E1-MJMAIN-5D" d="M22 710V750H159V-250H22V-210H119V710H22Z"></path>
<path stroke-width="1" id="E1-MJSZ4-23A1" d="M319 -645V1154H666V1070H403V-645H319Z"></path>
<path stroke-width="1" id="E1-MJSZ4-23A3" d="M319 -644V1155H403V-560H666V-644H319Z"></path>
<path stroke-width="1" id="E1-MJSZ4-23A2" d="M319 0V602H403V0H319Z"></path>
<path stroke-width="1" id="E1-MJSZ4-23A4" d="M0 1070V1154H347V-645H263V1070H0Z"></path>
<path stroke-width="1" id="E1-MJSZ4-23A6" d="M263 -560V1155H347V-644H0V-560H263Z"></path>
<path stroke-width="1" id="E1-MJSZ4-23A5" d="M263 0V602H347V0H263Z"></path>
<path stroke-width="1" id="E1-MJMAIN-3D" d="M56 347Q56 360 70 367H707Q722 359 722 347Q722 336 708 328L390 327H72Q56 332 56 347ZM56 153Q56 168 72 173H708Q722 163 722 153Q722 140 707 133H70Q56 140 56 153Z"></path>
<path stroke-width="1" id="E1-MJMAIN-31" d="M213 578L200 573Q186 568 160 563T102 556H83V602H102Q149 604 189 617T245 641T273 663Q275 666 285 666Q294 666 302 660V361L303 61Q310 54 315 52T339 48T401 46H427V0H416Q395 3 257 3Q121 3 100 0H88V46H114Q136 46 152 46T177 47T193 50T201 52T207 57T213 61V578Z"></path>
<path stroke-width="1" id="E1-MJMATHI-44" d="M287 628Q287 635 230 637Q207 637 200 638T193 647Q193 655 197 667T204 682Q206 683 403 683Q570 682 590 682T630 676Q702 659 752 597T803 431Q803 275 696 151T444 3L430 1L236 0H125H72Q48 0 41 2T33 11Q33 13 36 25Q40 41 44 43T67 46Q94 46 127 49Q141 52 146 61Q149 65 218 339T287 628ZM703 469Q703 507 692 537T666 584T629 613T590 629T555 636Q553 636 541 636T512 636T479 637H436Q392 637 386 627Q384 623 313 339T242 52Q242 48 253 48T330 47Q335 47 349 47T373 46Q499 46 581 128Q617 164 640 212T683 339T703 469Z"></path>
<path stroke-width="1" id="E1-MJMAIN-D7" d="M630 29Q630 9 609 9Q604 9 587 25T493 118L389 222L284 117Q178 13 175 11Q171 9 168 9Q160 9 154 15T147 29Q147 36 161 51T255 146L359 250L255 354Q174 435 161 449T147 471Q147 480 153 485T168 490Q173 490 175 489Q178 487 284 383L389 278L493 382Q570 459 587 475T609 491Q630 491 630 471Q630 464 620 453T522 355L418 250L522 145Q606 61 618 48T630 29Z"></path>
<path stroke-width="1" id="E1-MJMATHI-45" d="M492 213Q472 213 472 226Q472 230 477 250T482 285Q482 316 461 323T364 330H312Q311 328 277 192T243 52Q243 48 254 48T334 46Q428 46 458 48T518 61Q567 77 599 117T670 248Q680 270 683 272Q690 274 698 274Q718 274 718 261Q613 7 608 2Q605 0 322 0H133Q31 0 31 11Q31 13 34 25Q38 41 42 43T65 46Q92 46 125 49Q139 52 144 61Q146 66 215 342T285 622Q285 629 281 629Q273 632 228 634H197Q191 640 191 642T193 659Q197 676 203 680H757Q764 676 764 669Q764 664 751 557T737 447Q735 440 717 440H705Q698 445 698 453L701 476Q704 500 704 528Q704 558 697 578T678 609T643 625T596 632T532 634H485Q397 633 392 631Q388 629 386 622Q385 619 355 499T324 377Q347 376 372 376H398Q464 376 489 391T534 472Q538 488 540 490T557 493Q562 493 565 493T570 492T572 491T574 487T577 483L544 351Q511 218 508 216Q505 213 492 213Z"></path>
<path stroke-width="1" id="E1-MJMAIN-32" d="M109 429Q82 429 66 447T50 491Q50 562 103 614T235 666Q326 666 387 610T449 465Q449 422 429 383T381 315T301 241Q265 210 201 149L142 93L218 92Q375 92 385 97Q392 99 409 186V189H449V186Q448 183 436 95T421 3V0H50V19V31Q50 38 56 46T86 81Q115 113 136 137Q145 147 170 174T204 211T233 244T261 278T284 308T305 340T320 369T333 401T340 431T343 464Q343 527 309 573T212 619Q179 619 154 602T119 569T109 550Q109 549 114 549Q132 549 151 535T170 489Q170 464 154 447T109 429Z"></path>
<path stroke-width="1" id="E1-MJMAIN-22C5" d="M78 250Q78 274 95 292T138 310Q162 310 180 294T199 251Q199 226 182 208T139 190T96 207T78 250Z"></path>
<path stroke-width="1" id="E1-MJMATHI-54" d="M40 437Q21 437 21 445Q21 450 37 501T71 602L88 651Q93 669 101 677H569H659Q691 677 697 676T704 667Q704 661 687 553T668 444Q668 437 649 437Q640 437 637 437T631 442L629 445Q629 451 635 490T641 551Q641 586 628 604T573 629Q568 630 515 631Q469 631 457 630T439 622Q438 621 368 343T298 60Q298 48 386 46Q418 46 427 45T436 36Q436 31 433 22Q429 4 424 1L422 0Q419 0 415 0Q410 0 363 1T228 2Q99 2 64 0H49Q43 6 43 9T45 27Q49 40 55 46H83H94Q174 46 189 55Q190 56 191 56Q196 59 201 76T241 233Q258 301 269 344Q339 619 339 625Q339 630 310 630H279Q212 630 191 624Q146 614 121 583T67 467Q60 445 57 441T43 437H40Z"></path>
</defs>
<g stroke="currentColor" fill="currentColor" stroke-width="0" transform="matrix(1 0 0 -1 0 0)">
<g transform="translate(0,2150)">
 <use xlink:href="#E1-MJSZ4-23A1" x="0" y="-1155"></use>
<g transform="translate(0,-2048.5066225165565) scale(1,0.49337748344370863)">
 <use xlink:href="#E1-MJSZ4-23A2"></use>
</g>
 <use xlink:href="#E1-MJSZ4-23A3" x="0" y="-3155"></use>
</g>
<g transform="translate(834,0)">
<g transform="translate(-11,0)">
 <use xlink:href="#E1-MJMATHI-74" x="0" y="1350"></use>
 <use xlink:href="#E1-MJMATHI-75" x="0" y="-50"></use>
 <use xlink:href="#E1-MJMATHI-76" x="0" y="-1450"></use>
</g>
</g>
<g transform="translate(1563,2150)">
 <use xlink:href="#E1-MJSZ4-23A4" x="0" y="-1155"></use>
<g transform="translate(0,-2048.5066225165565) scale(1,0.49337748344370863)">
 <use xlink:href="#E1-MJSZ4-23A5"></use>
</g>
 <use xlink:href="#E1-MJSZ4-23A6" x="0" y="-3155"></use>
</g>
 <use xlink:href="#E1-MJMAIN-3D" x="2508" y="0"></use>
<g transform="translate(3287,0)">
<g transform="translate(397,0)">
<rect stroke="none" width="6304" height="60" x="0" y="220"></rect>
 <use xlink:href="#E1-MJMAIN-31" x="2902" y="676"></use>
<g transform="translate(60,-771)">
 <use xlink:href="#E1-MJMAIN-5B" x="0" y="0"></use>
<g transform="translate(445,0)">
<g transform="translate(-11,0)">
<g transform="translate(0,-50)">
 <use xlink:href="#E1-MJMATHI-44" x="0" y="0"></use>
 <use xlink:href="#E1-MJMAIN-D7" x="1050" y="0"></use>
 <use xlink:href="#E1-MJMATHI-45" x="2051" y="0"></use>
 <use xlink:href="#E1-MJMAIN-32" x="2815" y="0"></use>
 <use xlink:href="#E1-MJMAIN-22C5" x="3538" y="0"></use>
 <use xlink:href="#E1-MJMATHI-45" x="4039" y="0"></use>
 <use xlink:href="#E1-MJMAIN-31" x="4803" y="0"></use>
</g>
</g>
</g>
 <use xlink:href="#E1-MJMAIN-5D" x="5906" y="0"></use>
</g>
</g>
</g>
<g transform="translate(10110,0)">
<g transform="translate(0,2150)">
 <use xlink:href="#E1-MJSZ4-23A1" x="0" y="-1155"></use>
<g transform="translate(0,-2048.5066225165565) scale(1,0.49337748344370863)">
 <use xlink:href="#E1-MJSZ4-23A2"></use>
</g>
 <use xlink:href="#E1-MJSZ4-23A3" x="0" y="-3155"></use>
</g>
<g transform="translate(834,0)">
<g transform="translate(-11,0)">
<g transform="translate(0,1350)">
 <use xlink:href="#E1-MJMATHI-54" x="0" y="0"></use>
 <use xlink:href="#E1-MJMAIN-D7" x="926" y="0"></use>
 <use xlink:href="#E1-MJMATHI-45" x="1927" y="0"></use>
 <use xlink:href="#E1-MJMAIN-31" x="2691" y="0"></use>
 <use xlink:href="#E1-MJMAIN-22C5" x="3414" y="0"></use>
 <use xlink:href="#E1-MJMATHI-45" x="3915" y="0"></use>
 <use xlink:href="#E1-MJMAIN-32" x="4679" y="0"></use>
</g>
<g transform="translate(0,-50)">
 <use xlink:href="#E1-MJMATHI-44" x="0" y="0"></use>
 <use xlink:href="#E1-MJMAIN-D7" x="1050" y="0"></use>
 <use xlink:href="#E1-MJMATHI-45" x="2051" y="0"></use>
 <use xlink:href="#E1-MJMAIN-32" x="2815" y="0"></use>
 <use xlink:href="#E1-MJMAIN-22C5" x="3538" y="0"></use>
 <use xlink:href="#E1-MJMATHI-54" x="4039" y="0"></use>
</g>
<g transform="translate(0,-1450)">
 <use xlink:href="#E1-MJMATHI-54" x="0" y="0"></use>
 <use xlink:href="#E1-MJMAIN-D7" x="926" y="0"></use>
 <use xlink:href="#E1-MJMATHI-45" x="1927" y="0"></use>
 <use xlink:href="#E1-MJMAIN-31" x="2691" y="0"></use>
 <use xlink:href="#E1-MJMAIN-22C5" x="3414" y="0"></use>
 <use xlink:href="#E1-MJMATHI-44" x="3915" y="0"></use>
</g>
</g>
</g>
<g transform="translate(6171,2150)">
 <use xlink:href="#E1-MJSZ4-23A4" x="0" y="-1155"></use>
<g transform="translate(0,-2048.5066225165565) scale(1,0.49337748344370863)">
 <use xlink:href="#E1-MJSZ4-23A5"></use>
</g>
 <use xlink:href="#E1-MJSZ4-23A6" x="0" y="-3155"></use>
</g>
</g>
</g>
</svg>